<svg width="90" height="91" viewBox="0 0 90 91" fill="none" xmlns="http://www.w3.org/2000/svg">
<path fill-rule="evenodd" clip-rule="evenodd" d="M87.528 0C86.166 0 83.659 0.26 80 0.771C76.342 1.284 73.977 1.78 72.91 2.25C71.84 2.72 69.907 4.35 67.115 7.122C64.321 9.904 60.268 15.038 54.968 22.521C49.66 30.012 44.71 37.919 40.108 46.249C35.504 54.582 31.207 63.233 27.22 72.202C23.531 65.886 20.197 61.604 17.202 59.351C14.215 57.09 11.695 55.962 9.646 55.962C8.046 55.962 6.041 56.815 3.623 58.514C1.208 60.218 0 61.885 0 63.53C0 64.72 1.108 66.484 3.325 68.817C7.715 73.455 11.601 78.374 14.964 83.581C17.018 86.695 18.384 88.606 19.065 89.303C19.742 89.993 21.806 90.348 25.257 90.348C30.058 90.348 32.909 89.732 33.816 88.494C34.715 87.302 36.378 83.748 38.804 77.823C44.798 62.989 52.251 48.824 61.16 35.336C70.076 21.854 78.243 11.655 85.676 4.745C87.157 3.432 88.047 2.582 88.36 2.189C88.665 1.795 88.82 1.398 88.82 0.985C88.82 0.332 88.388 0 87.528 0Z" transform="translate(0.834961)" fill="black"/>
</svg>
